# Created by Open3D
# object name: light_wall
# number of vertices: 36
# number of triangles: 18
v 0.820312 3.08067 0
vn 8.74228e-08 -1 0
v 0.820312 3.08067 2.8649
vn 8.74228e-08 -1 0
v 1.64062 3.08067 2.8649
vn 8.74228e-08 -1 0
v 1.64062 3.08067 0
vn 8.74228e-08 -1 0
v 1.64501 3.07719 0
vn -0.974097 -0.22613 0
v 1.64501 3.07719 2.8649
vn -0.974097 -0.22613 0
v 2.02587 1.43656 2.8649
vn -0.974097 -0.22613 0
v 2.02587 1.43656 0
vn -0.974097 -0.22613 0
v 2.02596 1.43604 0
vn -0.993884 -0.110432 0
v 2.02596 1.43604 2.8649
vn -0.993884 -0.110432 0
v 2.31893 -1.20067 2.8649
vn -0.993884 -0.110432 0
v 2.31893 -1.20067 0
vn -0.993884 -0.110432 0
v 2.31494 -1.20565 0
vn -0.107482 0.994207 0
v 2.31494 -1.20565 2.8649
vn -0.107482 0.994207 0
v -2.021 -1.6744 2.8649
vn -0.107482 0.994207 0
v -2.021 -1.6744 0
vn -0.107482 0.994207 0
v -2.02593 -1.67065 0
vn 0.986893 0.161379 0
v -2.02593 -1.67065 2.8649
vn 0.986893 0.161379 0
v -2.78764 2.98755 2.8649
vn 0.986893 0.161379 0
v -2.78764 2.98755 0
vn 0.986893 0.161379 0
v -2.78325 2.99278 0
vn 0.010869 -0.999941 0
v -2.78325 2.99278 2.8649
vn 0.010869 -0.999941 0
v -0.0879398 3.02208 2.8649
vn 0.010869 -0.999941 0
v -0.0879398 3.02208 0
vn 0.010869 -0.999941 0
v -0.0914909 3.02028 0
vn 0.8 -0.6 0
v -0.0914909 3.02028 2.8649
vn 0.8 -0.6 0
v -0.00360027 3.13747 2.8649
vn 0.8 -0.6 0
v -0.00360027 3.13747 0
vn 0.8 -0.6 0
v 0.00430994 3.13606 0
vn -0.957826 -0.287348 0
v 0.00430994 3.13606 2.8649
vn -0.957826 -0.287348 0
v 0.0922006 2.84309 2.8649
vn -0.957826 -0.287348 0
v 0.0922006 2.84309 0
vn -0.957826 -0.287348 0
v 0.0865189 2.84608 0
vn 0.304776 -0.952424 0
v 0.0865189 2.84608 2.8649
vn 0.304776 -0.952424 0
v 0.818941 3.08046 2.8649
vn 0.304776 -0.952424 0
v 0.818941 3.08046 0
vn 0.304776 -0.952424 0
vt 0 1
vt 0.111111 0
vt 0 0
vt 0.111111 0
vt 0 1
vt 0.111111 1
vt 0.111111 1
vt 0.222222 0
vt 0.111111 0
vt 0.222222 0
vt 0.111111 1
vt 0.222222 1
vt 0.222222 1
vt 0.333333 0
vt 0.222222 0
vt 0.333333 0
vt 0.222222 1
vt 0.333333 1
vt 0.333333 1
vt 0.444444 0
vt 0.333333 0
vt 0.444444 0
vt 0.333333 1
vt 0.444444 1
vt 0.444444 1
vt 0.555556 0
vt 0.444444 0
vt 0.555556 0
vt 0.444444 1
vt 0.555556 1
vt 0.555556 1
vt 0.666667 0
vt 0.555556 0
vt 0.666667 0
vt 0.555556 1
vt 0.666667 1
vt 0.666667 1
vt 0.777778 0
vt 0.666667 0
vt 0.777778 0
vt 0.666667 1
vt 0.777778 1
vt 0.777778 1
vt 0.888889 0
vt 0.777778 0
vt 0.888889 0
vt 0.777778 1
vt 0.888889 1
vt 0.888889 1
vt 1 0
vt 0.888889 0
vt 1 0
vt 0.888889 1
vt 1 1
f 1/1/1 3/2/3 2/3/2
f 3/4/3 1/5/1 4/6/4
f 5/7/5 7/8/7 6/9/6
f 7/10/7 5/11/5 8/12/8
f 9/13/9 11/14/11 10/15/10
f 11/16/11 9/17/9 12/18/12
f 13/19/13 15/20/15 14/21/14
f 15/22/15 13/23/13 16/24/16
f 17/25/17 19/26/19 18/27/18
f 19/28/19 17/29/17 20/30/20
f 21/31/21 23/32/23 22/33/22
f 23/34/23 21/35/21 24/36/24
f 25/37/25 27/38/27 26/39/26
f 27/40/27 25/41/25 28/42/28
f 29/43/29 31/44/31 30/45/30
f 31/46/31 29/47/29 32/48/32
f 33/49/33 35/50/35 34/51/34
f 35/52/35 33/53/33 36/54/36
