# Created by Open3D
# object name: tex_ceiling
# number of vertices: 9
# number of triangles: 7
mtllib tex_ceiling.mtl
v 0.820312 3.07617 2.8649
vn 0 0 -1
v 1.64062 3.07617 2.8649
vn 0 0 -1
v 2.02148 1.43555 2.8649
vn 0 0 -1
v 2.31445 -1.20117 2.8649
vn 0 0 -1
v -2.02148 -1.66992 2.8649
vn 0 0 -1
v -2.7832 2.98828 2.8649
vn 0 0 -1
v -0.0878909 3.01758 2.8649
vn 0 0 -1
v -2.7405e-07 3.13477 2.8649
vn 0 0 -1
v 0.0878904 2.8418 2.8649
vn 0 0 -1
vt 0.563218 0.939024
vt 0.706896 0.987805
vt 0.867816 0.987805
vt 0.528736 0.97561
vt 0.545977 1
vt 0.563218 0.939024
vt 0.149425 0
vt 0 0.969512
vt 0.528736 0.97561
vt 0.942529 0.646342
vt 1 0.0975611
vt 0.149425 0
vt 0.563218 0.939024
vt 0.867816 0.987805
vt 0.942529 0.646342
vt 0.149425 0
vt 0.528736 0.97561
vt 0.563218 0.939024
vt 0.563218 0.939024
vt 0.942529 0.646342
vt 0.149425 0
usemtl tex_ceiling
f 9/1/9 1/2/1 2/3/2
f 7/4/7 8/5/8 9/6/9
f 5/7/5 6/8/6 7/9/7
f 3/10/3 4/11/4 5/12/5
f 9/13/9 2/14/2 3/15/3
f 5/16/5 7/17/7 9/18/9
f 9/19/9 3/20/3 5/21/5
