# Created by Open3D
# object name: tex_floor
# number of vertices: 8
# number of triangles: 6
mtllib tex_floor.mtl
v 1.61133 1.99219 0
vn 0 0 1
v 2.05078 1.93359 0
vn 0 0 1
v 2.31445 -1.58203 0
vn 0 0 1
v -2.22656 -1.96289 0
vn 0 0 1
v -2.60742 1.11328 0
vn 0 0 1
v -2.63672 2.19727 0
vn 0 0 1
v 0.322265 2.60742 0
vn 0 0 1
v 0.498047 1.875 0
vn 0 0 1
vt 0.946746 0.852564
vt 0.857988 0.865385
vt 0.633136 0.839744
vt 0.633136 0.839744
vt 0.597633 1
vt 0 0.910256
vt 0 0.910256
vt 0.00591718 0.673077
vt 0.0828403 0
vt 0.0828403 0
vt 1 0.0833334
vt 0.946746 0.852564
vt 0.633136 0.839744
vt 0 0.910256
vt 0.0828403 0
vt 0.0828403 0
vt 0.946746 0.852564
vt 0.633136 0.839744
usemtl tex_floor
f 2/1/2 1/2/1 8/3/8
f 8/4/8 7/5/7 6/6/6
f 6/7/6 5/8/5 4/9/4
f 4/10/4 3/11/3 2/12/2
f 8/13/8 6/14/6 4/15/4
f 4/16/4 2/17/2 8/18/8
